<svg height="335pt" preserveAspectRatio="xMidYMid meet" viewBox="0 0 334 335" width="334pt" xmlns="http://www.w3.org/2000/svg"><g transform="matrix(.1 0 0 -.1 0 335)"><path d="m1515 3326c-73-10-79-12-64-27 17-17 57-299 44-318-7-12 33-15 59-5 13 5 13 8 2 19-13 14-33 142-23 152 13 12 88 15 102 3 17-14 20-3 9 37-6 21-6 21-25 2-12-12-33-19-58-19h-39l-7 66c-8 79-4 84 77 84 48 0 59-4 72-22 17-24 20-18 10 20-7 25-27 27-159 8z"/><path d="m1838 3311c4-27-22-254-34-293-3-9-13-19-22-21-9-3-1-5 18-6s46-4 60-7c23-6 24-5 7 8s-18 21-8 87c5 40 12 75 14 78 3 2 25 1 48-4 31-6 47-16 56-33 12-24 13-24 13 12 0 20 3 45 6 55 5 17 5 17-6 1-8-14-25-18-66-18h-55l6 48c15 112 10 105 74 97 60-7 78-17 92-50 7-16 8-13 6 15l-2 35-85 12c-129 18-127 18-122-16z"/><path d="m2207 3261c5-21-82-279-102-300-13-16-6-20 88-50 56-19 107-36 112-38 6-2 21 11 34 28l24 32-24-16c-13-10-35-17-49-17-38 0-121 30-127 46s35 144 47 144c19 0 96-32 112-47 10-9 18-11 18-5s3 18 7 28c5 14 3 16-11 11-20-8-126 22-126 34 0 5 8 30 18 56 11 26 22 56 25 65 6 16 10 16 64-2 34-12 67-31 80-48l23-27v25c0 24-9 28-109 61-89 30-108 33-104 20z"/><path d="m1115 3236c-17-7-43-27-57-44-53-63-59-133-18-212 64-125 231-131 299-10 32 57 27 140-13 200-45 69-138 98-211 66zm114-25c40-28 82-114 88-181 6-58 5-60-30-95-44-44-93-48-141-11-72 55-111 212-66 268 37 47 98 55 149 19z"/><path d="m2590 3104c0-22-148-252-171-267-17-10-7-19 78-74 54-35 100-63 103-63s19 12 35 26c21 17 23 22 8 15-12-6-32-11-44-11-30 0-129 58-129 76 0 10 56 109 76 133 6 8 90-56 100-77 11-23 12-23 32 12 19 32 19 34 3 24-15-9-27-6-64 15-25 15-49 31-52 36-3 6 12 37 33 70l38 60 57-37c42-27 60-45 64-66l6-28 12 23c12 22 9 26-74 79-47 31-92 59-98 64-9 4-13 1-13-10z"/><path d="m830 3077c0-11-15-20-42-28-54-14-113-72-127-124-21-80 26-182 101-221 42-22 117-18 161 9 40 24 77 71 77 97-1 8-7 0-15-17-30-69-130-95-196-50-71 47-116 162-89 227 25 59 117 90 168 54 29-20 28-14-8 31-18 23-30 32-30 22z"/><path d="m1591 2859c-156-18-337-80-476-161-322-189-539-498-609-867-20-106-21-331-1-442 66-382 321-726 671-904 382-195 853-178 1218 44 66 40 86 44 86 17 0-7 14-40 30-73 39-77 121-155 207-196 64-30 75-32 178-32 104 0 114 2 180 33 94 45 173 123 217 216 31 67 33 77 33 181 0 103-2 114-32 178-62 130-179 222-318 248-33 7-61 13-63 15-2 1 7 33 21 71 122 340 83 752-100 1058-261 435-741 672-1242 614zm821-456c2-5 1-237-2-518-8-572-7-569-83-725-32-65-59-102-117-160-127-128-248-178-450-187-105-4-139-2-214 16-226 54-381 200-452 423-9 32-15 60-13 62 5 6 253 82 282 88 14 2 24-12 45-65 38-93 70-130 149-169 63-31 75-33 168-33 86 0 107 3 150 24 98 49 169 148 194 271 6 30 12 195 14 368l3 312h-143-143v150 150h304c168 0 306-3 308-7zm453-1519c-44-83-32-181 31-256 46-56 55-149 19-205-13-19-18-20-52-11-55 15-103 55-125 105-17 38-19 62-16 167 3 113 5 126 30 163 15 23 44 49 70 62 64 31 71 28 43-25zm118 32c44-18 94-77 108-128 6-24 9-86 7-143-4-120-29-176-93-212-54-31-67-30-55 3 15 40 12 131-6 167-9 18-27 44-40 59-53 64-55 148-6 225 30 47 37 50 85 29z"/><path d="m332 2594c-30-21-149-199-128-191 12 5 59-20 144-74 127-81 145-96 136-111-3-4-3-8-1-8s20 24 40 54c28 42 32 53 18 49-22-6-134 64-128 80 2 7 19 13 38 14 19 2 66 6 104 9l70 6 28 46c16 25 23 41 15 35-7-6-55-13-105-15l-93-5v39c0 73-78 114-138 72zm67-70c36-30 40-65 13-106l-18-27-67 42c-37 23-67 45-67 49 0 3 12 20 26 37 32 39 71 41 113 5z"/><path d="m2990 2506c-10-13-4-29 38-93 95-149 157-292 200-462 25-99 27-119 26-321 0-187-3-228-23-315-13-55-25-109-28-121-4-16 1-23 18-27 13-4 26-1 30 5 12 19 49 209 60 313 20 182-6 421-66 600-49 149-195 421-231 432-6 2-17-3-24-11z"/><path d="m97 2156c-9-34-25-91-36-127l-19-66 23 5c29 5 282-66 301-85 11-12 15-12 19-1 13 40 65 228 65 237 0 6-18 20-40 31l-40 20 25-36c29-42 31-79 10-130-11-26-19-34-32-31-10 3-44 13-76 22-57 16-58 17-44 38 8 12 28 27 46 33l31 10-52 13c-29 8-59 16-67 19s-5-7 9-26c25-33 21-62-7-61-10 0-43 8-73 18-44 14-54 21-52 37 7 43 38 90 70 104l32 16-38 10-39 10z"/><path d="m219 1771c-16-16-29-37-29-45 0-26-15-18-27 14-22 60-91 63-129 6-21-34-34-248-13-228 15 13 197 16 285 3l51-7 7 78c8 95-7 161-42 188-35 28-69 25-103-9zm-66-88c10-10 17-30 17-51 0-34 0-35-37-28-21 3-53 6-70 6-30 0-33 3-33 29 0 61 74 87 123 44zm178 6c14-14 19-30 17-52l-3-32-77-3-78-3v29c0 16 9 41 21 56 26 34 88 37 120 5z"/><path d="m350 1396c-15-14-254-86-288-86-10 0-23 5-29 11-12 12 14-90 26-103 3-4 51-12 106-18 164-19 161-13 47-105l-99-79 16-60c9-32 17-52 19-43 3 16 45 31 225 82 33 10 70 15 83 12 25-4 28 4 15 38-7 18-8 18-18 1-6-11-56-31-147-57-76-22-140-38-142-36s57 52 131 112 134 110 132 111c-1 2-76 12-166 23s-166 23-169 25c-6 7-4 8 151 51 108 31 130 35 144 23 14-11 15-10 9 8-3 12-12 40-19 63-11 37-14 40-27 27z"/><path d="m490 901-35-19h36c20 0 46-5 57-11 29-16 75-78 69-94-3-7-30-31-62-52-46-32-58-37-65-25-13 20-12 57 0 65 6 3 10 11 10 16 0 6-27-9-60-32s-60-43-60-45 12 1 26 6c35 14 41 13 65-11l20-20-38-28c-94-68-87-66-117-21s-33 85-10 119c16 22 15 22-25-4-23-16-38-32-34-39 4-6 38-55 77-110 58-83 71-95 77-79 4 11 58 56 121 100 143 101 136 97 155 81 9-7-21 39-66 102s-88 116-94 117c-7 1-28-6-47-16z"/><path d="m743 587c-12-7-60-55-106-107-48-54-91-94-100-94-10 1-17 1-17-1 0-1 24-23 54-48 46-40 52-43 49-23-4 17 18 48 92 134 94 109 118 125 143 100 19-19 14-38-14-48-36-14-30-54 8-58 67-8 56 95-14 138-38 23-63 25-95 7z"/><path d="m2430 251c-30-17-237-91-325-116-329-95-664-91-924 9-86 34-100 33-101-4 0-20 139-72 270-102 116-26 407-32 530-10 207 37 576 155 587 188 6 18-21 44-37 35z"/></g></svg>